<svg width="93" height="23" viewBox="0 0 93 23" fill="none" xmlns="http://www.w3.org/2000/svg">
<g clip-path="url(#clip0_370_437)">
<g filter="url(#filter0_f_370_437)">
<rect x="1.93652" y="-13" width="13" height="46" rx="6.5" transform="rotate(21.6032 1.93652 -13)" fill="#D9D9D9" fill-opacity="0.3"/>
<rect x="29.9355" y="-13" width="5.07999" height="46" rx="2.53999" transform="rotate(21.6032 29.9355 -13)" fill="#D9D9D9" fill-opacity="0.3"/>
</g>
<path d="M33.36 7.4H35.96C36.3867 7.4 36.7717 7.47667 37.115 7.63C37.4617 7.78333 37.7367 8.01333 37.94 8.32C38.1433 8.62667 38.245 9.00667 38.245 9.46C38.245 9.91 38.1433 10.295 37.94 10.615C37.7367 10.935 37.4617 11.18 37.115 11.35C36.7717 11.52 36.3867 11.605 35.96 11.605H35.1V14H33.36V7.4ZM35.1 10.245H35.475C35.6483 10.245 35.8017 10.22 35.935 10.17C36.0717 10.12 36.18 10.0417 36.26 9.935C36.34 9.825 36.38 9.68 36.38 9.5C36.38 9.32333 36.34 9.18167 36.26 9.075C36.18 8.965 36.0717 8.885 35.935 8.835C35.8017 8.785 35.6483 8.76 35.475 8.76H35.1V10.245ZM40.4438 14H38.6738V9.895H40.4438V10.5H40.4188C40.4521 10.4267 40.5188 10.3333 40.6188 10.22C40.7221 10.1067 40.8654 10.005 41.0488 9.915C41.2354 9.82167 41.4671 9.775 41.7438 9.775C41.9304 9.775 42.1071 9.805 42.2738 9.865C42.4404 9.925 42.5621 9.98333 42.6388 10.04L41.9588 11.475C41.9154 11.4117 41.8338 11.3483 41.7138 11.285C41.5938 11.2183 41.4454 11.185 41.2688 11.185C41.0688 11.185 40.9071 11.23 40.7838 11.32C40.6638 11.4067 40.5771 11.515 40.5238 11.645C40.4704 11.775 40.4438 11.9 40.4438 12.02V14ZM44.3422 12.305C44.3555 12.415 44.3989 12.5117 44.4722 12.595C44.5489 12.675 44.6489 12.7383 44.7722 12.785C44.8989 12.8283 45.0472 12.85 45.2172 12.85C45.3839 12.85 45.5405 12.8383 45.6872 12.815C45.8339 12.7883 45.9639 12.7533 46.0772 12.71C46.1939 12.6667 46.2855 12.6183 46.3522 12.565L47.0072 13.665C46.9339 13.7283 46.8239 13.795 46.6772 13.865C46.5305 13.935 46.3289 13.995 46.0722 14.045C45.8189 14.095 45.4939 14.12 45.0972 14.12C44.6372 14.12 44.2239 14.0383 43.8572 13.875C43.4905 13.7117 43.2005 13.4667 42.9872 13.14C42.7739 12.81 42.6672 12.3983 42.6672 11.905C42.6672 11.505 42.7572 11.145 42.9372 10.825C43.1172 10.5017 43.3772 10.2467 43.7172 10.06C44.0572 9.87 44.4689 9.775 44.9522 9.775C45.4155 9.775 45.8172 9.85667 46.1572 10.02C46.4972 10.18 46.7589 10.4233 46.9422 10.75C47.1255 11.0767 47.2172 11.49 47.2172 11.99C47.2172 12.0167 47.2155 12.07 47.2122 12.15C47.2122 12.23 47.2089 12.2817 47.2022 12.305H44.3422ZM45.5522 11.505C45.5489 11.395 45.5239 11.2967 45.4772 11.21C45.4339 11.1233 45.3705 11.055 45.2872 11.005C45.2039 10.955 45.1022 10.93 44.9822 10.93C44.8655 10.93 44.7622 10.9533 44.6722 11C44.5822 11.0467 44.5122 11.1133 44.4622 11.2C44.4122 11.2833 44.3839 11.385 44.3772 11.505H45.5522ZM53.8605 9.775C54.1739 9.775 54.4522 9.83833 54.6955 9.965C54.9422 10.0917 55.1355 10.2883 55.2755 10.555C55.4189 10.8183 55.4905 11.16 55.4905 11.58V14H53.7505V11.83C53.7505 11.6033 53.7139 11.4117 53.6405 11.255C53.5705 11.0983 53.4205 11.02 53.1905 11.02C53.0439 11.02 52.9205 11.0567 52.8205 11.13C52.7205 11.2033 52.6455 11.3017 52.5955 11.425C52.5489 11.545 52.5255 11.68 52.5255 11.83V14H50.9055V11.83C50.9055 11.6033 50.8689 11.4117 50.7955 11.255C50.7255 11.0983 50.5772 11.02 50.3505 11.02C50.2039 11.02 50.0805 11.0567 49.9805 11.13C49.8805 11.2 49.8055 11.2967 49.7555 11.42C49.7055 11.54 49.6805 11.6767 49.6805 11.83V14H47.9255V9.895H49.6805V10.465C49.7205 10.3617 49.8105 10.2567 49.9505 10.15C50.0939 10.0433 50.2655 9.955 50.4655 9.885C50.6689 9.81167 50.8805 9.775 51.1005 9.775C51.3439 9.775 51.5455 9.805 51.7055 9.865C51.8689 9.925 52.0039 10.01 52.1105 10.12C52.2205 10.23 52.3122 10.3567 52.3855 10.5C52.4322 10.39 52.5255 10.28 52.6655 10.17C52.8055 10.0567 52.9805 9.96333 53.1905 9.89C53.4005 9.81333 53.6239 9.775 53.8605 9.775ZM56.2861 14V9.895H58.0511V14H56.2861ZM57.1911 9.265C56.9211 9.265 56.6911 9.17 56.5011 8.98C56.3144 8.79 56.2211 8.56333 56.2211 8.3C56.2211 8.03667 56.3144 7.80833 56.5011 7.615C56.6911 7.42167 56.9211 7.325 57.1911 7.325C57.3678 7.325 57.5294 7.37 57.6761 7.46C57.8228 7.54667 57.9411 7.66333 58.0311 7.81C58.1211 7.95667 58.1661 8.12 58.1661 8.3C58.1661 8.56333 58.0694 8.79 57.8761 8.98C57.6861 9.17 57.4578 9.265 57.1911 9.265ZM60.6702 11.73C60.6702 12.0167 60.7202 12.2467 60.8202 12.42C60.9202 12.59 61.0986 12.675 61.3552 12.675C61.6152 12.675 61.7952 12.59 61.8952 12.42C61.9952 12.2467 62.0452 12.0167 62.0452 11.73V9.895H63.7852V11.91C63.7852 12.3633 63.6902 12.7567 63.5002 13.09C63.3102 13.42 63.0336 13.675 62.6702 13.855C62.3102 14.0317 61.8719 14.12 61.3552 14.12C60.8419 14.12 60.4052 14.0317 60.0452 13.855C59.6852 13.675 59.4086 13.42 59.2152 13.09C59.0252 12.7567 58.9302 12.3633 58.9302 11.91V9.895H60.6702V11.73ZM70.5305 9.775C70.8438 9.775 71.1221 9.83833 71.3655 9.965C71.6121 10.0917 71.8055 10.2883 71.9455 10.555C72.0888 10.8183 72.1605 11.16 72.1605 11.58V14H70.4205V11.83C70.4205 11.6033 70.3838 11.4117 70.3105 11.255C70.2405 11.0983 70.0905 11.02 69.8605 11.02C69.7138 11.02 69.5905 11.0567 69.4905 11.13C69.3905 11.2033 69.3155 11.3017 69.2655 11.425C69.2188 11.545 69.1955 11.68 69.1955 11.83V14H67.5755V11.83C67.5755 11.6033 67.5388 11.4117 67.4655 11.255C67.3955 11.0983 67.2471 11.02 67.0205 11.02C66.8738 11.02 66.7505 11.0567 66.6505 11.13C66.5505 11.2 66.4755 11.2967 66.4255 11.42C66.3755 11.54 66.3505 11.6767 66.3505 11.83V14H64.5955V9.895H66.3505V10.465C66.3905 10.3617 66.4805 10.2567 66.6205 10.15C66.7638 10.0433 66.9355 9.955 67.1355 9.885C67.3388 9.81167 67.5505 9.775 67.7705 9.775C68.0138 9.775 68.2155 9.805 68.3755 9.865C68.5388 9.925 68.6738 10.01 68.7805 10.12C68.8905 10.23 68.9821 10.3567 69.0555 10.5C69.1021 10.39 69.1955 10.28 69.3355 10.17C69.4755 10.0567 69.6505 9.96333 69.8605 9.89C70.0705 9.81333 70.2938 9.775 70.5305 9.775Z" fill="white"/>
<path d="M20 5L21.3471 8.80041H25.7063L22.1796 11.1492L23.5267 14.9496L20 12.6008L16.4733 14.9496L17.8204 11.1492L14.2937 8.80041H18.6529L20 5Z" fill="#FFD600"/>
</g>
<defs>
<filter id="filter0_f_370_437" x="-23.0645" y="-22.2439" width="66.9668" height="64.8641" filterUnits="userSpaceOnUse" color-interpolation-filters="sRGB">
<feFlood flood-opacity="0" result="BackgroundImageFix"/>
<feBlend mode="normal" in="SourceGraphic" in2="BackgroundImageFix" result="shape"/>
<feGaussianBlur stdDeviation="5" result="effect1_foregroundBlur_370_437"/>
</filter>
<clipPath id="clip0_370_437">
<path d="M0 7C0 3.13401 3.13401 0 7 0H86C89.866 0 93 3.13401 93 7V23H0V7Z" fill="white"/>
</clipPath>
</defs>
</svg>
